<mxfile host="Electron" modified="2023-08-17T12:07:54.380Z" agent="Mozilla/5.0 (X11; Linux x86_64) AppleWebKit/537.36 (KHTML, like Gecko) draw.io/21.6.8 Chrome/114.0.5735.289 Electron/25.5.0 Safari/537.36" etag="8_dFMYj3ve_v6JwvNNsx" version="21.6.8" type="device">
  <diagram id="C5RBs43oDa-KdzZeNtuy" name="Page-1">
    <mxGraphModel dx="2610" dy="2206" grid="1" gridSize="10" guides="1" tooltips="1" connect="1" arrows="1" fold="1" page="1" pageScale="1" pageWidth="827" pageHeight="1169" math="0" shadow="0">
      <root>
        <mxCell id="WIyWlLk6GJQsqaUBKTNV-0" />
        <mxCell id="WIyWlLk6GJQsqaUBKTNV-1" parent="WIyWlLk6GJQsqaUBKTNV-0" />
        <mxCell id="5kIZXdPeI2GXVFiAJAgS-0" value="led_init" style="ellipse;whiteSpace=wrap;html=1;fontSize=12;fontStyle=1" vertex="1" parent="WIyWlLk6GJQsqaUBKTNV-1">
          <mxGeometry x="150" y="180" width="121" height="80" as="geometry" />
        </mxCell>
        <mxCell id="5kIZXdPeI2GXVFiAJAgS-1" value="return" style="ellipse;whiteSpace=wrap;html=1;fontSize=12;fontStyle=1" vertex="1" parent="WIyWlLk6GJQsqaUBKTNV-1">
          <mxGeometry x="150" y="470" width="120" height="80" as="geometry" />
        </mxCell>
        <mxCell id="5kIZXdPeI2GXVFiAJAgS-11" style="edgeStyle=orthogonalEdgeStyle;rounded=0;orthogonalLoop=1;jettySize=auto;html=1;exitX=0.491;exitY=0.978;exitDx=0;exitDy=0;fontSize=12;fontStyle=1;entryX=0.444;entryY=0;entryDx=0;entryDy=0;entryPerimeter=0;exitPerimeter=0;" edge="1" parent="WIyWlLk6GJQsqaUBKTNV-1" source="5kIZXdPeI2GXVFiAJAgS-0" target="5kIZXdPeI2GXVFiAJAgS-4">
          <mxGeometry relative="1" as="geometry">
            <mxPoint x="210" y="260" as="sourcePoint" />
            <mxPoint x="210" y="280" as="targetPoint" />
          </mxGeometry>
        </mxCell>
        <mxCell id="5kIZXdPeI2GXVFiAJAgS-13" style="edgeStyle=orthogonalEdgeStyle;rounded=0;orthogonalLoop=1;jettySize=auto;html=1;exitX=0.5;exitY=1;exitDx=0;exitDy=0;entryX=0.443;entryY=0.009;entryDx=0;entryDy=0;entryPerimeter=0;fontSize=12;fontStyle=1" edge="1" parent="WIyWlLk6GJQsqaUBKTNV-1" source="5kIZXdPeI2GXVFiAJAgS-4" target="5kIZXdPeI2GXVFiAJAgS-5">
          <mxGeometry relative="1" as="geometry" />
        </mxCell>
        <mxCell id="5kIZXdPeI2GXVFiAJAgS-4" value="Port Config LED pins as GPIO" style="rounded=0;whiteSpace=wrap;html=1;fontSize=12;fontStyle=1" vertex="1" parent="WIyWlLk6GJQsqaUBKTNV-1">
          <mxGeometry x="130" y="310" width="180" height="50" as="geometry" />
        </mxCell>
        <mxCell id="5kIZXdPeI2GXVFiAJAgS-14" style="edgeStyle=orthogonalEdgeStyle;rounded=0;orthogonalLoop=1;jettySize=auto;html=1;exitX=0.5;exitY=1;exitDx=0;exitDy=0;entryX=0.5;entryY=0;entryDx=0;entryDy=0;fontSize=12;fontStyle=1" edge="1" parent="WIyWlLk6GJQsqaUBKTNV-1" source="5kIZXdPeI2GXVFiAJAgS-5" target="5kIZXdPeI2GXVFiAJAgS-1">
          <mxGeometry relative="1" as="geometry" />
        </mxCell>
        <mxCell id="5kIZXdPeI2GXVFiAJAgS-5" value="Gpio Config LED pins as output" style="rounded=0;whiteSpace=wrap;html=1;fontSize=12;fontStyle=1" vertex="1" parent="WIyWlLk6GJQsqaUBKTNV-1">
          <mxGeometry x="130" y="390" width="180" height="50" as="geometry" />
        </mxCell>
        <mxCell id="5kIZXdPeI2GXVFiAJAgS-7" value="" style="rhombus;whiteSpace=wrap;html=1;fontSize=12;fontStyle=1" vertex="1" parent="WIyWlLk6GJQsqaUBKTNV-1">
          <mxGeometry x="940" y="670" width="160" height="150" as="geometry" />
        </mxCell>
        <mxCell id="5kIZXdPeI2GXVFiAJAgS-19" value="stop" style="ellipse;whiteSpace=wrap;html=1;fontSize=12;fontStyle=1" vertex="1" parent="WIyWlLk6GJQsqaUBKTNV-1">
          <mxGeometry x="950" y="930" width="120" height="80" as="geometry" />
        </mxCell>
        <mxCell id="5kIZXdPeI2GXVFiAJAgS-20" value="" style="endArrow=none;dashed=1;html=1;strokeWidth=3;rounded=0;fontStyle=1;fontSize=12;" edge="1" parent="WIyWlLk6GJQsqaUBKTNV-1">
          <mxGeometry width="50" height="50" relative="1" as="geometry">
            <mxPoint x="770" y="670" as="sourcePoint" />
            <mxPoint x="770" y="50" as="targetPoint" />
          </mxGeometry>
        </mxCell>
        <mxCell id="5kIZXdPeI2GXVFiAJAgS-21" value="" style="endArrow=none;dashed=1;html=1;strokeWidth=3;rounded=0;fontStyle=1;fontSize=12;" edge="1" parent="WIyWlLk6GJQsqaUBKTNV-1">
          <mxGeometry width="50" height="50" relative="1" as="geometry">
            <mxPoint x="70" y="680" as="sourcePoint" />
            <mxPoint x="70" y="60" as="targetPoint" />
          </mxGeometry>
        </mxCell>
        <mxCell id="5kIZXdPeI2GXVFiAJAgS-22" value="Predefined functions" style="text;html=1;align=center;verticalAlign=middle;resizable=0;points=[];autosize=1;strokeColor=none;fillColor=none;fontSize=17;fontStyle=1" vertex="1" parent="WIyWlLk6GJQsqaUBKTNV-1">
          <mxGeometry x="300" y="640" width="190" height="30" as="geometry" />
        </mxCell>
        <mxCell id="5kIZXdPeI2GXVFiAJAgS-72" style="edgeStyle=orthogonalEdgeStyle;rounded=0;orthogonalLoop=1;jettySize=auto;html=1;exitX=0.5;exitY=1;exitDx=0;exitDy=0;entryX=0.5;entryY=0;entryDx=0;entryDy=0;" edge="1" parent="WIyWlLk6GJQsqaUBKTNV-1" source="5kIZXdPeI2GXVFiAJAgS-24" target="5kIZXdPeI2GXVFiAJAgS-34">
          <mxGeometry relative="1" as="geometry" />
        </mxCell>
        <mxCell id="5kIZXdPeI2GXVFiAJAgS-24" value="led_init" style="shape=process;whiteSpace=wrap;html=1;backgroundOutline=1;" vertex="1" parent="WIyWlLk6GJQsqaUBKTNV-1">
          <mxGeometry x="930" y="270" width="120" height="60" as="geometry" />
        </mxCell>
        <mxCell id="5kIZXdPeI2GXVFiAJAgS-29" style="edgeStyle=orthogonalEdgeStyle;rounded=0;orthogonalLoop=1;jettySize=auto;html=1;exitX=0.5;exitY=1;exitDx=0;exitDy=0;" edge="1" parent="WIyWlLk6GJQsqaUBKTNV-1" source="5kIZXdPeI2GXVFiAJAgS-25" target="5kIZXdPeI2GXVFiAJAgS-24">
          <mxGeometry relative="1" as="geometry" />
        </mxCell>
        <mxCell id="5kIZXdPeI2GXVFiAJAgS-25" value="DebugConsoleInit" style="shape=process;whiteSpace=wrap;html=1;backgroundOutline=1;" vertex="1" parent="WIyWlLk6GJQsqaUBKTNV-1">
          <mxGeometry x="930" y="160" width="120" height="60" as="geometry" />
        </mxCell>
        <mxCell id="5kIZXdPeI2GXVFiAJAgS-70" style="edgeStyle=orthogonalEdgeStyle;rounded=0;orthogonalLoop=1;jettySize=auto;html=1;exitX=0.5;exitY=1;exitDx=0;exitDy=0;entryX=0.486;entryY=-0.011;entryDx=0;entryDy=0;entryPerimeter=0;" edge="1" parent="WIyWlLk6GJQsqaUBKTNV-1" source="5kIZXdPeI2GXVFiAJAgS-26" target="5kIZXdPeI2GXVFiAJAgS-69">
          <mxGeometry relative="1" as="geometry" />
        </mxCell>
        <mxCell id="5kIZXdPeI2GXVFiAJAgS-26" value="start" style="ellipse;whiteSpace=wrap;html=1;fontSize=12;fontStyle=1" vertex="1" parent="WIyWlLk6GJQsqaUBKTNV-1">
          <mxGeometry x="930" y="-100" width="115" height="80" as="geometry" />
        </mxCell>
        <mxCell id="5kIZXdPeI2GXVFiAJAgS-31" value="create task" style="rounded=0;whiteSpace=wrap;html=1;fontSize=12;fontStyle=1" vertex="1" parent="WIyWlLk6GJQsqaUBKTNV-1">
          <mxGeometry x="910" y="460" width="180" height="50" as="geometry" />
        </mxCell>
        <mxCell id="5kIZXdPeI2GXVFiAJAgS-32" value="UART&lt;br&gt;&amp;nbsp;communication" style="rounded=0;whiteSpace=wrap;html=1;fontSize=12;fontStyle=1" vertex="1" parent="WIyWlLk6GJQsqaUBKTNV-1">
          <mxGeometry x="910" y="560" width="180" height="50" as="geometry" />
        </mxCell>
        <mxCell id="5kIZXdPeI2GXVFiAJAgS-34" value="button_init" style="shape=process;whiteSpace=wrap;html=1;backgroundOutline=1;" vertex="1" parent="WIyWlLk6GJQsqaUBKTNV-1">
          <mxGeometry x="930" y="360" width="120" height="60" as="geometry" />
        </mxCell>
        <mxCell id="5kIZXdPeI2GXVFiAJAgS-35" style="edgeStyle=orthogonalEdgeStyle;rounded=0;orthogonalLoop=1;jettySize=auto;html=1;exitX=0.5;exitY=1;exitDx=0;exitDy=0;entryX=0.5;entryY=0;entryDx=0;entryDy=0;fontSize=12;fontStyle=1" edge="1" parent="WIyWlLk6GJQsqaUBKTNV-1" source="5kIZXdPeI2GXVFiAJAgS-36" target="5kIZXdPeI2GXVFiAJAgS-39">
          <mxGeometry relative="1" as="geometry" />
        </mxCell>
        <mxCell id="5kIZXdPeI2GXVFiAJAgS-36" value="button_init" style="ellipse;whiteSpace=wrap;html=1;fontSize=12;fontStyle=1" vertex="1" parent="WIyWlLk6GJQsqaUBKTNV-1">
          <mxGeometry x="370" y="69" width="120" height="80" as="geometry" />
        </mxCell>
        <mxCell id="5kIZXdPeI2GXVFiAJAgS-37" value="return" style="ellipse;whiteSpace=wrap;html=1;fontSize=12;fontStyle=1" vertex="1" parent="WIyWlLk6GJQsqaUBKTNV-1">
          <mxGeometry x="370" y="499" width="120" height="80" as="geometry" />
        </mxCell>
        <mxCell id="5kIZXdPeI2GXVFiAJAgS-38" style="edgeStyle=orthogonalEdgeStyle;rounded=0;orthogonalLoop=1;jettySize=auto;html=1;exitX=0.5;exitY=1;exitDx=0;exitDy=0;entryX=0.5;entryY=0;entryDx=0;entryDy=0;fontSize=12;fontStyle=1" edge="1" parent="WIyWlLk6GJQsqaUBKTNV-1" source="5kIZXdPeI2GXVFiAJAgS-39" target="5kIZXdPeI2GXVFiAJAgS-43">
          <mxGeometry relative="1" as="geometry">
            <mxPoint x="430.6400000000001" y="226.55000000000018" as="targetPoint" />
          </mxGeometry>
        </mxCell>
        <mxCell id="5kIZXdPeI2GXVFiAJAgS-39" value="Set pins as PORT config" style="rounded=0;whiteSpace=wrap;html=1;fontSize=12;fontStyle=1" vertex="1" parent="WIyWlLk6GJQsqaUBKTNV-1">
          <mxGeometry x="340" y="209" width="180" height="50" as="geometry" />
        </mxCell>
        <mxCell id="5kIZXdPeI2GXVFiAJAgS-42" style="edgeStyle=orthogonalEdgeStyle;rounded=0;orthogonalLoop=1;jettySize=auto;html=1;exitX=0.5;exitY=1;exitDx=0;exitDy=0;entryX=0.5;entryY=0;entryDx=0;entryDy=0;fontSize=12;fontStyle=1" edge="1" parent="WIyWlLk6GJQsqaUBKTNV-1" source="5kIZXdPeI2GXVFiAJAgS-43" target="5kIZXdPeI2GXVFiAJAgS-45">
          <mxGeometry relative="1" as="geometry" />
        </mxCell>
        <mxCell id="5kIZXdPeI2GXVFiAJAgS-43" value="Set pin as input GPIO config" style="rounded=0;whiteSpace=wrap;html=1;fontSize=12;fontStyle=1" vertex="1" parent="WIyWlLk6GJQsqaUBKTNV-1">
          <mxGeometry x="340" y="309" width="180" height="50" as="geometry" />
        </mxCell>
        <mxCell id="5kIZXdPeI2GXVFiAJAgS-44" style="edgeStyle=orthogonalEdgeStyle;rounded=0;orthogonalLoop=1;jettySize=auto;html=1;exitX=0.5;exitY=1;exitDx=0;exitDy=0;entryX=0.5;entryY=0;entryDx=0;entryDy=0;fontSize=12;fontStyle=1" edge="1" parent="WIyWlLk6GJQsqaUBKTNV-1" source="5kIZXdPeI2GXVFiAJAgS-45" target="5kIZXdPeI2GXVFiAJAgS-37">
          <mxGeometry relative="1" as="geometry" />
        </mxCell>
        <mxCell id="5kIZXdPeI2GXVFiAJAgS-45" value="Enable Interrupt" style="rounded=0;whiteSpace=wrap;html=1;fontSize=12;fontStyle=1" vertex="1" parent="WIyWlLk6GJQsqaUBKTNV-1">
          <mxGeometry x="340" y="389" width="180" height="50" as="geometry" />
        </mxCell>
        <mxCell id="5kIZXdPeI2GXVFiAJAgS-90" style="edgeStyle=orthogonalEdgeStyle;rounded=0;orthogonalLoop=1;jettySize=auto;html=1;exitX=0.5;exitY=1;exitDx=0;exitDy=0;" edge="1" parent="WIyWlLk6GJQsqaUBKTNV-1" source="5kIZXdPeI2GXVFiAJAgS-59" target="5kIZXdPeI2GXVFiAJAgS-66">
          <mxGeometry relative="1" as="geometry" />
        </mxCell>
        <mxCell id="5kIZXdPeI2GXVFiAJAgS-59" value="led_blink" style="ellipse;whiteSpace=wrap;html=1;fontSize=12;fontStyle=1" vertex="1" parent="WIyWlLk6GJQsqaUBKTNV-1">
          <mxGeometry x="-280" y="-200" width="127" height="80" as="geometry" />
        </mxCell>
        <mxCell id="5kIZXdPeI2GXVFiAJAgS-60" value="return" style="ellipse;whiteSpace=wrap;html=1;fontSize=12;fontStyle=1" vertex="1" parent="WIyWlLk6GJQsqaUBKTNV-1">
          <mxGeometry x="-270" y="760" width="120" height="80" as="geometry" />
        </mxCell>
        <mxCell id="5kIZXdPeI2GXVFiAJAgS-65" style="edgeStyle=orthogonalEdgeStyle;rounded=0;orthogonalLoop=1;jettySize=auto;html=1;exitX=0.5;exitY=1;exitDx=0;exitDy=0;entryX=0.5;entryY=0;entryDx=0;entryDy=0;fontSize=12;fontStyle=1" edge="1" parent="WIyWlLk6GJQsqaUBKTNV-1" source="5kIZXdPeI2GXVFiAJAgS-66" target="5kIZXdPeI2GXVFiAJAgS-73">
          <mxGeometry relative="1" as="geometry">
            <mxPoint x="-210.26" y="50.44999999999982" as="targetPoint" />
          </mxGeometry>
        </mxCell>
        <mxCell id="5kIZXdPeI2GXVFiAJAgS-66" value="range &amp;lt;-- rand() % 20" style="rounded=0;whiteSpace=wrap;html=1;fontSize=12;fontStyle=1" vertex="1" parent="WIyWlLk6GJQsqaUBKTNV-1">
          <mxGeometry x="-310" y="-60" width="188" height="50" as="geometry" />
        </mxCell>
        <mxCell id="5kIZXdPeI2GXVFiAJAgS-71" style="edgeStyle=orthogonalEdgeStyle;rounded=0;orthogonalLoop=1;jettySize=auto;html=1;exitX=0.5;exitY=1;exitDx=0;exitDy=0;entryX=0.5;entryY=0;entryDx=0;entryDy=0;" edge="1" parent="WIyWlLk6GJQsqaUBKTNV-1" source="5kIZXdPeI2GXVFiAJAgS-69" target="5kIZXdPeI2GXVFiAJAgS-25">
          <mxGeometry relative="1" as="geometry" />
        </mxCell>
        <mxCell id="5kIZXdPeI2GXVFiAJAgS-69" value="Enable PortClock B,E,A" style="rounded=0;whiteSpace=wrap;html=1;fontSize=12;fontStyle=1" vertex="1" parent="WIyWlLk6GJQsqaUBKTNV-1">
          <mxGeometry x="900" y="60" width="180" height="50" as="geometry" />
        </mxCell>
        <mxCell id="5kIZXdPeI2GXVFiAJAgS-77" style="edgeStyle=orthogonalEdgeStyle;rounded=0;orthogonalLoop=1;jettySize=auto;html=1;exitX=0;exitY=0.5;exitDx=0;exitDy=0;entryX=0.5;entryY=0;entryDx=0;entryDy=0;" edge="1" parent="WIyWlLk6GJQsqaUBKTNV-1" source="5kIZXdPeI2GXVFiAJAgS-73" target="5kIZXdPeI2GXVFiAJAgS-80">
          <mxGeometry relative="1" as="geometry">
            <mxPoint x="-360" y="135" as="targetPoint" />
          </mxGeometry>
        </mxCell>
        <mxCell id="5kIZXdPeI2GXVFiAJAgS-83" value="false" style="edgeLabel;html=1;align=center;verticalAlign=middle;resizable=0;points=[];" vertex="1" connectable="0" parent="5kIZXdPeI2GXVFiAJAgS-77">
          <mxGeometry x="-0.2911" y="-1" relative="1" as="geometry">
            <mxPoint as="offset" />
          </mxGeometry>
        </mxCell>
        <mxCell id="5kIZXdPeI2GXVFiAJAgS-78" style="edgeStyle=orthogonalEdgeStyle;rounded=0;orthogonalLoop=1;jettySize=auto;html=1;exitX=0.5;exitY=1;exitDx=0;exitDy=0;entryX=0.47;entryY=-0.019;entryDx=0;entryDy=0;entryPerimeter=0;" edge="1" parent="WIyWlLk6GJQsqaUBKTNV-1" source="5kIZXdPeI2GXVFiAJAgS-73" target="5kIZXdPeI2GXVFiAJAgS-75">
          <mxGeometry relative="1" as="geometry" />
        </mxCell>
        <mxCell id="5kIZXdPeI2GXVFiAJAgS-79" value="true" style="edgeLabel;html=1;align=center;verticalAlign=middle;resizable=0;points=[];" vertex="1" connectable="0" parent="5kIZXdPeI2GXVFiAJAgS-78">
          <mxGeometry x="-0.1658" relative="1" as="geometry">
            <mxPoint as="offset" />
          </mxGeometry>
        </mxCell>
        <mxCell id="5kIZXdPeI2GXVFiAJAgS-73" value="range &amp;lt; 5" style="rhombus;whiteSpace=wrap;html=1;" vertex="1" parent="WIyWlLk6GJQsqaUBKTNV-1">
          <mxGeometry x="-285" y="75" width="139" height="120" as="geometry" />
        </mxCell>
        <mxCell id="5kIZXdPeI2GXVFiAJAgS-75" value="glow GREEN led" style="rounded=0;whiteSpace=wrap;html=1;fontSize=12;fontStyle=1" vertex="1" parent="WIyWlLk6GJQsqaUBKTNV-1">
          <mxGeometry x="-300" y="340" width="180" height="50" as="geometry" />
        </mxCell>
        <mxCell id="5kIZXdPeI2GXVFiAJAgS-82" style="edgeStyle=orthogonalEdgeStyle;rounded=0;orthogonalLoop=1;jettySize=auto;html=1;exitX=0.5;exitY=1;exitDx=0;exitDy=0;entryX=0.472;entryY=-0.019;entryDx=0;entryDy=0;entryPerimeter=0;" edge="1" parent="WIyWlLk6GJQsqaUBKTNV-1" source="5kIZXdPeI2GXVFiAJAgS-80" target="5kIZXdPeI2GXVFiAJAgS-81">
          <mxGeometry relative="1" as="geometry" />
        </mxCell>
        <mxCell id="5kIZXdPeI2GXVFiAJAgS-88" value="true" style="edgeLabel;html=1;align=center;verticalAlign=middle;resizable=0;points=[];" vertex="1" connectable="0" parent="5kIZXdPeI2GXVFiAJAgS-82">
          <mxGeometry x="-0.2969" relative="1" as="geometry">
            <mxPoint as="offset" />
          </mxGeometry>
        </mxCell>
        <mxCell id="5kIZXdPeI2GXVFiAJAgS-80" value="range &amp;gt; 15" style="rhombus;whiteSpace=wrap;html=1;" vertex="1" parent="WIyWlLk6GJQsqaUBKTNV-1">
          <mxGeometry x="-495" y="165" width="130" height="120" as="geometry" />
        </mxCell>
        <mxCell id="5kIZXdPeI2GXVFiAJAgS-81" value="glow BLUE led" style="rounded=0;whiteSpace=wrap;html=1;fontSize=12;fontStyle=1" vertex="1" parent="WIyWlLk6GJQsqaUBKTNV-1">
          <mxGeometry x="-515" y="340" width="180" height="50" as="geometry" />
        </mxCell>
        <mxCell id="5kIZXdPeI2GXVFiAJAgS-100" style="edgeStyle=orthogonalEdgeStyle;rounded=0;orthogonalLoop=1;jettySize=auto;html=1;" edge="1" parent="WIyWlLk6GJQsqaUBKTNV-1" source="5kIZXdPeI2GXVFiAJAgS-75" target="5kIZXdPeI2GXVFiAJAgS-98">
          <mxGeometry relative="1" as="geometry">
            <mxPoint x="-210" y="530" as="sourcePoint" />
          </mxGeometry>
        </mxCell>
        <mxCell id="5kIZXdPeI2GXVFiAJAgS-91" value="&lt;h1&gt;Random LED blink&lt;/h1&gt;&lt;p style=&quot;line-height: 30%; font-size: 11px;&quot;&gt;&lt;font style=&quot;font-size: 11px;&quot;&gt;Generate random led blink.&lt;/font&gt;&lt;/p&gt;&lt;p style=&quot;line-height: 30%; font-size: 11px;&quot;&gt;&lt;font style=&quot;font-size: 11px;&quot;&gt;&lt;span style=&quot;background-color: initial;&quot;&gt;probablity of getting BLUE&amp;nbsp;&amp;nbsp;&lt;/span&gt;&lt;span style=&quot;background-color: initial;&quot;&gt;&amp;nbsp;&amp;nbsp;&amp;nbsp;&amp;nbsp;&lt;/span&gt;&lt;span style=&quot;background-color: initial;&quot;&gt;5/20.&lt;/span&gt;&lt;/font&gt;&lt;/p&gt;&lt;p style=&quot;line-height: 30%; font-size: 11px;&quot;&gt;&lt;font style=&quot;font-size: 11px;&quot;&gt;&lt;span style=&quot;background-color: initial;&quot;&gt;probablity of getting GREEN&amp;nbsp;&amp;nbsp;&lt;/span&gt;&lt;span style=&quot;background-color: initial;&quot;&gt;&amp;nbsp;&amp;nbsp;&amp;nbsp;&amp;nbsp;&lt;/span&gt;&lt;span style=&quot;background-color: initial;&quot;&gt;5/20.&lt;/span&gt;&lt;/font&gt;&lt;/p&gt;&lt;p style=&quot;line-height: 30%; font-size: 11px;&quot;&gt;&lt;font style=&quot;font-size: 11px;&quot;&gt;&lt;span style=&quot;background-color: initial;&quot;&gt;probablity of No LED&amp;nbsp;&amp;nbsp;&lt;/span&gt;&lt;span style=&quot;background-color: initial; white-space: pre;&quot;&gt;&amp;nbsp;&amp;nbsp;&amp;nbsp;&amp;nbsp;10&lt;/span&gt;&lt;span style=&quot;background-color: initial;&quot;&gt;/20&lt;/span&gt;&lt;/font&gt;&lt;/p&gt;" style="text;html=1;strokeColor=none;fillColor=none;spacing=5;spacingTop=-20;whiteSpace=wrap;overflow=hidden;rounded=0;" vertex="1" parent="WIyWlLk6GJQsqaUBKTNV-1">
          <mxGeometry x="-670" y="-85" width="340" height="125" as="geometry" />
        </mxCell>
        <mxCell id="5kIZXdPeI2GXVFiAJAgS-101" style="edgeStyle=orthogonalEdgeStyle;rounded=0;orthogonalLoop=1;jettySize=auto;html=1;exitX=0.5;exitY=1;exitDx=0;exitDy=0;entryX=0.5;entryY=0;entryDx=0;entryDy=0;" edge="1" parent="WIyWlLk6GJQsqaUBKTNV-1" source="5kIZXdPeI2GXVFiAJAgS-98" target="5kIZXdPeI2GXVFiAJAgS-99">
          <mxGeometry relative="1" as="geometry" />
        </mxCell>
        <mxCell id="5kIZXdPeI2GXVFiAJAgS-98" value="delay" style="rounded=0;whiteSpace=wrap;html=1;fontSize=12;fontStyle=1" vertex="1" parent="WIyWlLk6GJQsqaUBKTNV-1">
          <mxGeometry x="-300" y="520" width="180" height="50" as="geometry" />
        </mxCell>
        <mxCell id="5kIZXdPeI2GXVFiAJAgS-102" style="edgeStyle=orthogonalEdgeStyle;rounded=0;orthogonalLoop=1;jettySize=auto;html=1;exitX=0.5;exitY=1;exitDx=0;exitDy=0;entryX=0.5;entryY=0;entryDx=0;entryDy=0;" edge="1" parent="WIyWlLk6GJQsqaUBKTNV-1" source="5kIZXdPeI2GXVFiAJAgS-99" target="5kIZXdPeI2GXVFiAJAgS-60">
          <mxGeometry relative="1" as="geometry" />
        </mxCell>
        <mxCell id="5kIZXdPeI2GXVFiAJAgS-99" value="clear LEDs" style="rounded=0;whiteSpace=wrap;html=1;fontSize=12;fontStyle=1" vertex="1" parent="WIyWlLk6GJQsqaUBKTNV-1">
          <mxGeometry x="-300" y="630" width="180" height="50" as="geometry" />
        </mxCell>
        <mxCell id="5kIZXdPeI2GXVFiAJAgS-110" value="" style="endArrow=classic;html=1;rounded=0;exitX=1;exitY=0.5;exitDx=0;exitDy=0;" edge="1" parent="WIyWlLk6GJQsqaUBKTNV-1" source="5kIZXdPeI2GXVFiAJAgS-80">
          <mxGeometry width="50" height="50" relative="1" as="geometry">
            <mxPoint x="20" y="310" as="sourcePoint" />
            <mxPoint x="-210" y="470" as="targetPoint" />
            <Array as="points">
              <mxPoint x="-30" y="225" />
              <mxPoint x="-30" y="470" />
            </Array>
          </mxGeometry>
        </mxCell>
        <mxCell id="5kIZXdPeI2GXVFiAJAgS-111" value="" style="endArrow=classic;html=1;rounded=0;exitX=0.419;exitY=1.041;exitDx=0;exitDy=0;exitPerimeter=0;" edge="1" parent="WIyWlLk6GJQsqaUBKTNV-1" source="5kIZXdPeI2GXVFiAJAgS-81">
          <mxGeometry width="50" height="50" relative="1" as="geometry">
            <mxPoint x="20" y="310" as="sourcePoint" />
            <mxPoint x="-210" y="470" as="targetPoint" />
            <Array as="points">
              <mxPoint x="-440" y="470" />
            </Array>
          </mxGeometry>
        </mxCell>
      </root>
    </mxGraphModel>
  </diagram>
</mxfile>
